<svg width="2068" height="925" viewBox="0 0 2068 925" fill="none" xmlns="http://www.w3.org/2000/svg">
<g clip-path="url(#clip0_115_2)">
<g filter="url(#filter0_d_115_2)">
<g clip-path="url(#clip1_115_2)">
<rect x="39" y="36" width="600" height="600" rx="20" fill="white"/>
<rect x="402.576" y="491.607" width="51.5462" height="309.277" transform="rotate(135 402.576 491.607)" fill="#00092C"/>
<rect x="457.25" y="436.934" width="51.5462" height="309.277" transform="rotate(135 457.25 436.934)" fill="#00092C"/>
<rect x="584.818" y="418.711" width="103.092" height="463.916" transform="rotate(135 584.818 418.711)" fill="#00092C"/>
<circle cx="67.2455" cy="608.245" r="309.277" transform="rotate(135 67.2455 608.245)" fill="#00092C"/>
<circle cx="67.2464" cy="608.244" r="206.185" transform="rotate(135 67.2464 608.244)" fill="#54E19B"/>
</g>
</g>
<g filter="url(#filter1_d_115_2)">
<path d="M842.785 37.5H963.34L858.175 636H737.62L842.785 37.5ZM1054.44 223.89C1064.7 164.04 1089.21 118.155 1127.97 86.235C1166.73 53.745 1224.01 37.5 1299.82 37.5H1499.89L1483.65 131.55H1283.58C1255.08 131.55 1231.14 138.39 1211.76 152.07C1192.95 165.18 1180.69 189.12 1174.99 223.89L1160.46 306.825H1415.25L1398.15 400.875H1143.36L1102.32 636H981.763L1054.44 223.89ZM1725.72 646.26C1655.04 646.26 1600.32 631.155 1561.56 600.945C1522.8 570.735 1503.42 528.27 1503.42 473.55C1503.42 460.44 1504.84 445.335 1507.69 428.235L1540.18 245.265C1552.72 173.445 1582.65 119.295 1629.96 82.815C1677.27 45.765 1739.97 27.24 1818.06 27.24C1872.78 27.24 1917.81 36.645 1953.15 55.455C1989.06 74.265 2014.42 101.91 2029.24 138.39L1931.77 198.24C1919.23 170.88 1904.41 151.215 1887.31 139.245C1870.21 127.275 1844.28 121.29 1809.51 121.29C1765.62 121.29 1731.7 131.835 1707.76 152.925C1683.82 173.445 1668.15 204.225 1660.74 245.265L1628.25 428.235C1625.97 439.635 1624.83 451.605 1624.83 464.145C1624.83 522.855 1661.02 552.21 1733.41 552.21C1770.46 552.21 1800.67 545.94 1824.04 533.4C1847.41 520.29 1870.5 499.485 1893.3 470.985L1967.68 534.255C1937.47 572.445 1903.27 600.66 1865.08 618.9C1827.46 637.14 1781.01 646.26 1725.72 646.26Z" fill="white"/>
</g>
<rect x="39" y="698" width="1965" height="2" fill="white" fill-opacity="0.6"/>
<path d="M50.0782 764V862H66.7382V764H50.0782ZM128.813 822.8V862H144.353V821.12C144.353 813.373 142.44 807.307 138.613 802.92C134.786 798.44 129.233 796.2 121.953 796.2C117.473 796.2 113.6 797.133 110.333 799C107.16 800.867 104.546 803.713 102.493 807.54V797.6H87.3729V862H102.493V822.8C102.493 819.907 103.1 817.387 104.313 815.24C105.526 813 107.206 811.32 109.353 810.2C111.5 808.987 113.973 808.38 116.773 808.38C120.88 808.38 123.913 809.593 125.873 812.02C127.833 814.447 128.813 818.04 128.813 822.8ZM160.022 866.34C160.209 871.94 161.609 876.887 164.222 881.18C166.929 885.473 170.755 888.787 175.702 891.12C180.649 893.547 186.622 894.76 193.622 894.76C199.502 894.76 204.962 893.5 210.002 890.98C215.042 888.553 219.102 884.82 222.182 879.78C225.355 874.74 226.942 868.347 226.942 860.6V797.6H212.102V860.6C212.102 865.453 211.169 869.42 209.302 872.5C207.529 875.58 205.195 877.867 202.302 879.36C199.409 880.853 196.375 881.6 193.202 881.6C189.655 881.6 186.529 880.947 183.822 879.64C181.115 878.333 178.969 876.513 177.382 874.18C175.889 871.847 175.095 869.233 175.002 866.34H160.022ZM158.762 829.52C158.762 836.52 160.209 842.493 163.102 847.44C165.995 852.387 169.822 856.167 174.582 858.78C179.435 861.393 184.615 862.7 190.122 862.7C195.535 862.7 200.249 861.393 204.262 858.78C208.369 856.073 211.589 852.247 213.922 847.3C216.349 842.353 217.562 836.427 217.562 829.52C217.562 822.52 216.349 816.547 213.922 811.6C211.589 806.653 208.369 802.873 204.262 800.26C200.249 797.553 195.535 796.2 190.122 796.2C184.615 796.2 179.435 797.507 174.582 800.12C169.822 802.733 165.995 806.513 163.102 811.46C160.209 816.313 158.762 822.333 158.762 829.52ZM174.442 829.52C174.442 825.133 175.329 821.447 177.102 818.46C178.875 815.473 181.209 813.233 184.102 811.74C187.089 810.153 190.309 809.36 193.762 809.36C195.909 809.36 198.055 809.78 200.202 810.62C202.442 811.46 204.449 812.767 206.222 814.54C207.995 816.22 209.395 818.32 210.422 820.84C211.542 823.267 212.102 826.16 212.102 829.52C212.102 833.813 211.169 837.5 209.302 840.58C207.529 843.567 205.195 845.807 202.302 847.3C199.502 848.793 196.655 849.54 193.762 849.54C190.309 849.54 187.089 848.793 184.102 847.3C181.209 845.713 178.875 843.427 177.102 840.44C175.329 837.453 174.442 833.813 174.442 829.52ZM273.693 863.4C281.16 863.4 287.553 861.953 292.873 859.06C298.193 856.167 302.533 851.827 305.893 846.04L292.873 840.72C290.82 844.173 288.253 846.74 285.173 848.42C282.093 850.1 278.5 850.94 274.393 850.94C270.473 850.94 267.113 850.1 264.313 848.42C261.607 846.74 259.553 844.313 258.153 841.14C256.753 837.873 256.053 833.907 256.053 829.24C256.147 824.573 256.893 820.653 258.293 817.48C259.693 814.307 261.747 811.88 264.453 810.2C267.16 808.52 270.427 807.68 274.253 807.68C277.427 807.68 280.18 808.38 282.513 809.78C284.94 811.18 286.807 813.14 288.113 815.66C289.513 818.18 290.213 821.167 290.213 824.62C290.213 825.273 290.027 826.113 289.653 827.14C289.373 828.073 289.093 828.82 288.813 829.38L293.433 822.94H249.753V833.3H306.313C306.407 832.927 306.453 832.32 306.453 831.48C306.547 830.64 306.593 829.847 306.593 829.1C306.593 822.193 305.287 816.313 302.673 811.46C300.153 806.513 296.513 802.733 291.753 800.12C286.993 797.507 281.207 796.2 274.393 796.2C267.58 796.2 261.653 797.6 256.613 800.4C251.573 803.107 247.653 806.98 244.853 812.02C242.147 817.06 240.793 822.987 240.793 829.8C240.793 836.52 242.147 842.4 244.853 847.44C247.56 852.48 251.387 856.4 256.333 859.2C261.373 862 267.16 863.4 273.693 863.4ZM362.465 822.8V862H378.005V821.12C378.005 813.373 376.092 807.307 372.265 802.92C368.439 798.44 362.885 796.2 355.605 796.2C351.125 796.2 347.252 797.133 343.985 799C340.812 800.867 338.199 803.713 336.145 807.54V797.6H321.025V862H336.145V822.8C336.145 819.907 336.752 817.387 337.965 815.24C339.179 813 340.859 811.32 343.005 810.2C345.152 808.987 347.625 808.38 350.425 808.38C354.532 808.38 357.565 809.593 359.525 812.02C361.485 814.447 362.465 818.04 362.465 822.8ZM396.754 771.98C396.754 774.5 397.688 776.693 399.554 778.56C401.514 780.333 403.754 781.22 406.274 781.22C408.981 781.22 411.221 780.333 412.994 778.56C414.861 776.693 415.794 774.5 415.794 771.98C415.794 769.367 414.861 767.173 412.994 765.4C411.221 763.627 408.981 762.74 406.274 762.74C403.754 762.74 401.514 763.627 399.554 765.4C397.688 767.173 396.754 769.367 396.754 771.98ZM398.854 797.6V862H413.694V797.6H398.854ZM462.502 863.4C469.968 863.4 476.362 861.953 481.682 859.06C487.002 856.167 491.342 851.827 494.702 846.04L481.682 840.72C479.628 844.173 477.062 846.74 473.982 848.42C470.902 850.1 467.308 850.94 463.202 850.94C459.282 850.94 455.922 850.1 453.122 848.42C450.415 846.74 448.362 844.313 446.962 841.14C445.562 837.873 444.862 833.907 444.862 829.24C444.955 824.573 445.702 820.653 447.102 817.48C448.502 814.307 450.555 811.88 453.262 810.2C455.968 808.52 459.235 807.68 463.062 807.68C466.235 807.68 468.988 808.38 471.322 809.78C473.748 811.18 475.615 813.14 476.922 815.66C478.322 818.18 479.022 821.167 479.022 824.62C479.022 825.273 478.835 826.113 478.462 827.14C478.182 828.073 477.902 828.82 477.622 829.38L482.242 822.94H438.562V833.3H495.122C495.215 832.927 495.262 832.32 495.262 831.48C495.355 830.64 495.402 829.847 495.402 829.1C495.402 822.193 494.095 816.313 491.482 811.46C488.962 806.513 485.322 802.733 480.562 800.12C475.802 797.507 470.015 796.2 463.202 796.2C456.388 796.2 450.462 797.6 445.422 800.4C440.382 803.107 436.462 806.98 433.662 812.02C430.955 817.06 429.602 822.987 429.602 829.8C429.602 836.52 430.955 842.4 433.662 847.44C436.368 852.48 440.195 856.4 445.142 859.2C450.182 862 455.968 863.4 462.502 863.4ZM524.814 797.6H509.834V862H524.814V797.6ZM543.994 813.7L551.274 800.96C549.874 799.187 548.147 797.973 546.094 797.32C544.04 796.573 541.847 796.2 539.514 796.2C536.247 796.2 533.074 797.367 529.994 799.7C527.007 802.033 524.534 805.207 522.574 809.22C520.707 813.14 519.774 817.667 519.774 822.8L524.814 825.74C524.814 822.66 525.14 820 525.794 817.76C526.54 815.427 527.707 813.607 529.294 812.3C530.88 810.993 532.934 810.34 535.454 810.34C537.32 810.34 538.86 810.62 540.074 811.18C541.287 811.74 542.594 812.58 543.994 813.7ZM563.19 797.6V862H578.03V797.6H563.19ZM593.71 764.7L580.97 758.4L559.97 780.8L568.51 785.7L593.71 764.7ZM608.358 841.98C608.358 839.927 608.824 838.2 609.758 836.8C610.784 835.4 612.278 834.327 614.238 833.58C616.198 832.74 618.764 832.32 621.938 832.32C625.578 832.32 629.031 832.787 632.298 833.72C635.564 834.653 638.644 836.147 641.538 838.2V830.5C640.698 829.473 639.251 828.353 637.198 827.14C635.144 825.833 632.531 824.713 629.358 823.78C626.278 822.847 622.591 822.38 618.298 822.38C610.271 822.38 604.064 824.247 599.678 827.98C595.291 831.62 593.098 836.567 593.098 842.82C593.098 847.207 594.124 850.94 596.178 854.02C598.231 857.1 600.984 859.433 604.438 861.02C607.891 862.607 611.624 863.4 615.638 863.4C619.371 863.4 623.011 862.747 626.558 861.44C630.198 860.04 633.184 857.987 635.518 855.28C637.944 852.48 639.158 849.027 639.158 844.92L636.918 836.52C636.918 839.693 636.124 842.493 634.538 844.92C633.044 847.253 631.038 849.027 628.518 850.24C626.091 851.453 623.384 852.06 620.398 852.06C618.064 852.06 615.964 851.687 614.098 850.94C612.324 850.193 610.924 849.073 609.898 847.58C608.871 845.993 608.358 844.127 608.358 841.98ZM603.598 814.4C604.531 813.747 605.931 812.953 607.798 812.02C609.758 810.993 612.044 810.153 614.658 809.5C617.364 808.753 620.211 808.38 623.198 808.38C625.158 808.38 626.978 808.567 628.658 808.94C630.338 809.313 631.784 809.92 632.998 810.76C634.211 811.6 635.144 812.673 635.798 813.98C636.544 815.287 636.918 816.967 636.918 819.02V862H651.758V816.08C651.758 811.787 650.591 808.193 648.258 805.3C645.924 802.313 642.704 800.027 638.598 798.44C634.584 796.853 629.918 796.06 624.598 796.06C618.624 796.06 613.304 796.9 608.638 798.58C604.064 800.26 600.331 801.987 597.438 803.76L603.598 814.4ZM759.797 752.8V862H775.057V752.8H759.797ZM706.457 829.8C706.457 836.8 707.904 842.82 710.797 847.86C713.691 852.9 717.517 856.773 722.277 859.48C727.131 862.093 732.311 863.4 737.817 863.4C743.231 863.4 747.944 862.047 751.957 859.34C756.064 856.633 759.284 852.76 761.617 847.72C764.044 842.68 765.257 836.707 765.257 829.8C765.257 822.8 764.044 816.827 761.617 811.88C759.284 806.84 756.064 802.967 751.957 800.26C747.944 797.553 743.231 796.2 737.817 796.2C732.311 796.2 727.131 797.553 722.277 800.26C717.517 802.873 713.691 806.7 710.797 811.74C707.904 816.687 706.457 822.707 706.457 829.8ZM722.137 829.8C722.137 825.507 723.024 821.82 724.797 818.74C726.571 815.66 728.904 813.327 731.797 811.74C734.784 810.153 738.004 809.36 741.457 809.36C744.351 809.36 747.197 810.153 749.997 811.74C752.891 813.327 755.224 815.66 756.997 818.74C758.864 821.727 759.797 825.413 759.797 829.8C759.797 834.187 758.864 837.92 756.997 841C755.224 843.987 752.891 846.273 749.997 847.86C747.197 849.447 744.351 850.24 741.457 850.24C738.004 850.24 734.784 849.447 731.797 847.86C728.904 846.273 726.571 843.94 724.797 840.86C723.024 837.78 722.137 834.093 722.137 829.8ZM821.799 863.4C829.265 863.4 835.659 861.953 840.979 859.06C846.299 856.167 850.639 851.827 853.999 846.04L840.979 840.72C838.925 844.173 836.359 846.74 833.279 848.42C830.199 850.1 826.605 850.94 822.499 850.94C818.579 850.94 815.219 850.1 812.419 848.42C809.712 846.74 807.659 844.313 806.259 841.14C804.859 837.873 804.159 833.907 804.159 829.24C804.252 824.573 804.999 820.653 806.399 817.48C807.799 814.307 809.852 811.88 812.559 810.2C815.265 808.52 818.532 807.68 822.359 807.68C825.532 807.68 828.285 808.38 830.619 809.78C833.045 811.18 834.912 813.14 836.219 815.66C837.619 818.18 838.319 821.167 838.319 824.62C838.319 825.273 838.132 826.113 837.759 827.14C837.479 828.073 837.199 828.82 836.919 829.38L841.539 822.94H797.859V833.3H854.419C854.512 832.927 854.559 832.32 854.559 831.48C854.652 830.64 854.699 829.847 854.699 829.1C854.699 822.193 853.392 816.313 850.779 811.46C848.259 806.513 844.619 802.733 839.859 800.12C835.099 797.507 829.312 796.2 822.499 796.2C815.685 796.2 809.759 797.6 804.719 800.4C799.679 803.107 795.759 806.98 792.959 812.02C790.252 817.06 788.899 822.987 788.899 829.8C788.899 836.52 790.252 842.4 792.959 847.44C795.665 852.48 799.492 856.4 804.439 859.2C809.479 862 815.265 863.4 821.799 863.4ZM922.583 778.84H966.403V764H922.583V778.84ZM922.583 817.76H965.003V803.34H922.583V817.76ZM912.363 764V862H928.603V764H912.363ZM984.111 752.8V862H999.231V752.8H984.111ZM1034.1 836.8V797.6H1018.56V838.48C1018.56 846.133 1020.48 852.2 1024.3 856.68C1028.22 861.16 1033.78 863.4 1040.96 863.4C1045.44 863.4 1049.27 862.467 1052.44 860.6C1055.71 858.64 1058.37 855.793 1060.42 852.06V862H1075.54V797.6H1060.42V836.8C1060.42 839.693 1059.82 842.26 1058.6 844.5C1057.39 846.647 1055.71 848.327 1053.56 849.54C1051.42 850.66 1048.9 851.22 1046 851.22C1041.99 851.22 1039 849.96 1037.04 847.44C1035.08 844.92 1034.1 841.373 1034.1 836.8ZM1094.29 771.98C1094.29 774.5 1095.23 776.693 1097.09 778.56C1099.05 780.333 1101.29 781.22 1103.81 781.22C1106.52 781.22 1108.76 780.333 1110.53 778.56C1112.4 776.693 1113.33 774.5 1113.33 771.98C1113.33 769.367 1112.4 767.173 1110.53 765.4C1108.76 763.627 1106.52 762.74 1103.81 762.74C1101.29 762.74 1099.05 763.627 1097.09 765.4C1095.23 767.173 1094.29 769.367 1094.29 771.98ZM1096.39 797.6V862H1111.23V797.6H1096.39ZM1180.48 752.8V862H1195.74V752.8H1180.48ZM1127.14 829.8C1127.14 836.8 1128.59 842.82 1131.48 847.86C1134.37 852.9 1138.2 856.773 1142.96 859.48C1147.81 862.093 1152.99 863.4 1158.5 863.4C1163.91 863.4 1168.63 862.047 1172.64 859.34C1176.75 856.633 1179.97 852.76 1182.3 847.72C1184.73 842.68 1185.94 836.707 1185.94 829.8C1185.94 822.8 1184.73 816.827 1182.3 811.88C1179.97 806.84 1176.75 802.967 1172.64 800.26C1168.63 797.553 1163.91 796.2 1158.5 796.2C1152.99 796.2 1147.81 797.553 1142.96 800.26C1138.2 802.873 1134.37 806.7 1131.48 811.74C1128.59 816.687 1127.14 822.707 1127.14 829.8ZM1142.82 829.8C1142.82 825.507 1143.71 821.82 1145.48 818.74C1147.25 815.66 1149.59 813.327 1152.48 811.74C1155.47 810.153 1158.69 809.36 1162.14 809.36C1165.03 809.36 1167.88 810.153 1170.68 811.74C1173.57 813.327 1175.91 815.66 1177.68 818.74C1179.55 821.727 1180.48 825.413 1180.48 829.8C1180.48 834.187 1179.55 837.92 1177.68 841C1175.91 843.987 1173.57 846.273 1170.68 847.86C1167.88 849.447 1165.03 850.24 1162.14 850.24C1158.69 850.24 1155.47 849.447 1152.48 847.86C1149.59 846.273 1147.25 843.94 1145.48 840.86C1143.71 837.78 1142.82 834.093 1142.82 829.8ZM1209.58 829.8C1209.58 836.333 1211.08 842.167 1214.06 847.3C1217.14 852.34 1221.3 856.307 1226.52 859.2C1231.75 862 1237.68 863.4 1244.3 863.4C1250.93 863.4 1256.81 862 1261.94 859.2C1267.17 856.307 1271.32 852.34 1274.4 847.3C1277.48 842.167 1279.02 836.333 1279.02 829.8C1279.02 823.173 1277.48 817.34 1274.4 812.3C1271.32 807.26 1267.17 803.34 1261.94 800.54C1256.81 797.647 1250.93 796.2 1244.3 796.2C1237.68 796.2 1231.75 797.647 1226.52 800.54C1221.3 803.34 1217.14 807.26 1214.06 812.3C1211.08 817.34 1209.58 823.173 1209.58 829.8ZM1225.12 829.8C1225.12 825.787 1225.96 822.24 1227.64 819.16C1229.32 816.08 1231.61 813.7 1234.5 812.02C1237.4 810.34 1240.66 809.5 1244.3 809.5C1247.85 809.5 1251.07 810.34 1253.96 812.02C1256.95 813.7 1259.28 816.08 1260.96 819.16C1262.64 822.24 1263.48 825.787 1263.48 829.8C1263.48 833.813 1262.64 837.36 1260.96 840.44C1259.28 843.427 1256.95 845.807 1253.96 847.58C1251.07 849.26 1247.85 850.1 1244.3 850.1C1240.66 850.1 1237.4 849.26 1234.5 847.58C1231.61 845.807 1229.32 843.427 1227.64 840.44C1225.96 837.36 1225.12 833.813 1225.12 829.8ZM1296.31 840.86L1287.49 849.68C1289.36 852.107 1291.64 854.44 1294.35 856.68C1297.15 858.827 1300.37 860.6 1304.01 862C1307.74 863.307 1311.8 863.96 1316.19 863.96C1323.28 863.96 1328.88 862.14 1332.99 858.5C1337.19 854.767 1339.29 849.867 1339.29 843.8C1339.29 839.88 1338.36 836.707 1336.49 834.28C1334.72 831.853 1332.34 829.8 1329.35 828.12C1326.36 826.44 1323.1 824.9 1319.55 823.5C1316.94 822.473 1314.56 821.493 1312.41 820.56C1310.36 819.627 1308.68 818.6 1307.37 817.48C1306.16 816.267 1305.55 814.913 1305.55 813.42C1305.55 811.647 1306.25 810.293 1307.65 809.36C1309.05 808.427 1310.82 807.96 1312.97 807.96C1316.14 807.96 1319.22 808.753 1322.21 810.34C1325.2 811.927 1327.76 813.98 1329.91 816.5L1338.31 807.54C1336.54 805.393 1334.39 803.48 1331.87 801.8C1329.35 800.12 1326.5 798.767 1323.33 797.74C1320.25 796.713 1316.94 796.2 1313.39 796.2C1309.47 796.2 1305.78 796.853 1302.33 798.16C1298.97 799.373 1296.26 801.287 1294.21 803.9C1292.25 806.513 1291.27 809.78 1291.27 813.7C1291.27 817.527 1292.16 820.7 1293.93 823.22C1295.8 825.74 1298.13 827.793 1300.93 829.38C1303.82 830.873 1306.72 832.18 1309.61 833.3C1312.5 834.327 1315.02 835.353 1317.17 836.38C1319.32 837.313 1321 838.48 1322.21 839.88C1323.42 841.187 1324.03 842.773 1324.03 844.64C1324.03 846.787 1323.24 848.467 1321.65 849.68C1320.16 850.893 1318.06 851.5 1315.35 851.5C1313.2 851.5 1311.06 851.127 1308.91 850.38C1306.76 849.54 1304.62 848.327 1302.47 846.74C1300.42 845.06 1298.36 843.1 1296.31 840.86ZM1408.12 813C1408.12 806 1409.66 799.933 1412.74 794.8C1415.91 789.573 1420.02 785.56 1425.06 782.76C1430.19 779.867 1435.74 778.42 1441.72 778.42C1446.38 778.42 1450.58 779.027 1454.32 780.24C1458.05 781.453 1461.41 783.133 1464.4 785.28C1467.48 787.333 1470.14 789.667 1472.38 792.28V772.68C1468.27 769.32 1463.84 766.753 1459.08 764.98C1454.32 763.207 1448.34 762.32 1441.16 762.32C1433.97 762.32 1427.25 763.533 1421 765.96C1414.84 768.387 1409.47 771.887 1404.9 776.46C1400.32 781.033 1396.73 786.447 1394.12 792.7C1391.6 798.86 1390.34 805.627 1390.34 813C1390.34 820.373 1391.6 827.187 1394.12 833.44C1396.73 839.6 1400.32 844.967 1404.9 849.54C1409.47 854.113 1414.84 857.613 1421 860.04C1427.25 862.467 1433.97 863.68 1441.16 863.68C1448.34 863.68 1454.32 862.793 1459.08 861.02C1463.84 859.247 1468.27 856.68 1472.38 853.32V833.72C1470.14 836.333 1467.48 838.713 1464.4 840.86C1461.41 842.913 1458.05 844.547 1454.32 845.76C1450.58 846.973 1446.38 847.58 1441.72 847.58C1435.74 847.58 1430.19 846.18 1425.06 843.38C1420.02 840.487 1415.91 836.427 1412.74 831.2C1409.66 825.973 1408.12 819.907 1408.12 813ZM1506.59 752.8H1491.47V862H1506.59V752.8ZM1532.91 822.8V862H1548.17V820.7C1548.17 815.193 1547.33 810.62 1545.65 806.98C1543.97 803.247 1541.45 800.447 1538.09 798.58C1534.83 796.713 1530.81 795.78 1526.05 795.78C1521.2 795.78 1517.05 796.993 1513.59 799.42C1510.23 801.847 1507.62 805.067 1505.75 809.08C1503.89 813.093 1502.95 817.667 1502.95 822.8H1506.59C1506.59 819.907 1507.2 817.387 1508.41 815.24C1509.63 813.093 1511.31 811.413 1513.45 810.2C1515.6 808.987 1518.07 808.38 1520.87 808.38C1525.07 808.38 1528.11 809.593 1529.97 812.02C1531.93 814.447 1532.91 818.04 1532.91 822.8ZM1566.79 771.98C1566.79 774.5 1567.73 776.693 1569.59 778.56C1571.55 780.333 1573.79 781.22 1576.31 781.22C1579.02 781.22 1581.26 780.333 1583.03 778.56C1584.9 776.693 1585.83 774.5 1585.83 771.98C1585.83 769.367 1584.9 767.173 1583.03 765.4C1581.26 763.627 1579.02 762.74 1576.31 762.74C1573.79 762.74 1571.55 763.627 1569.59 765.4C1567.73 767.173 1566.79 769.367 1566.79 771.98ZM1568.89 797.6V862H1583.73V797.6H1568.89ZM1604.54 752.8V862H1619.66V752.8H1604.54ZM1666.99 863.4C1674.46 863.4 1680.85 861.953 1686.17 859.06C1691.49 856.167 1695.83 851.827 1699.19 846.04L1686.17 840.72C1684.12 844.173 1681.55 846.74 1678.47 848.42C1675.39 850.1 1671.8 850.94 1667.69 850.94C1663.77 850.94 1660.41 850.1 1657.61 848.42C1654.91 846.74 1652.85 844.313 1651.45 841.14C1650.05 837.873 1649.35 833.907 1649.35 829.24C1649.45 824.573 1650.19 820.653 1651.59 817.48C1652.99 814.307 1655.05 811.88 1657.75 810.2C1660.46 808.52 1663.73 807.68 1667.55 807.68C1670.73 807.68 1673.48 808.38 1675.81 809.78C1678.24 811.18 1680.11 813.14 1681.41 815.66C1682.81 818.18 1683.51 821.167 1683.51 824.62C1683.51 825.273 1683.33 826.113 1682.95 827.14C1682.67 828.073 1682.39 828.82 1682.11 829.38L1686.73 822.94H1643.05V833.3H1699.61C1699.71 832.927 1699.75 832.32 1699.75 831.48C1699.85 830.64 1699.89 829.847 1699.89 829.1C1699.89 822.193 1698.59 816.313 1695.97 811.46C1693.45 806.513 1689.81 802.733 1685.05 800.12C1680.29 797.507 1674.51 796.2 1667.69 796.2C1660.88 796.2 1654.95 797.6 1649.91 800.4C1644.87 803.107 1640.95 806.98 1638.15 812.02C1635.45 817.06 1634.09 822.987 1634.09 829.8C1634.09 836.52 1635.45 842.4 1638.15 847.44C1640.86 852.48 1644.69 856.4 1649.63 859.2C1654.67 862 1660.46 863.4 1666.99 863.4ZM1764 830.5L1751.68 839.04C1753.83 843.52 1756.72 847.673 1760.36 851.5C1764 855.327 1768.25 858.407 1773.1 860.74C1778.05 862.98 1783.41 864.1 1789.2 864.1C1793.4 864.1 1797.41 863.4 1801.24 862C1805.16 860.693 1808.66 858.827 1811.74 856.4C1814.82 853.88 1817.25 850.8 1819.02 847.16C1820.79 843.52 1821.68 839.413 1821.68 834.84C1821.68 830.547 1820.93 826.813 1819.44 823.64C1818.04 820.467 1816.13 817.713 1813.7 815.38C1811.27 812.953 1808.57 810.947 1805.58 809.36C1802.69 807.773 1799.79 806.467 1796.9 805.44C1791.67 803.573 1787.43 801.753 1784.16 799.98C1780.89 798.207 1778.47 796.34 1776.88 794.38C1775.39 792.327 1774.64 790.04 1774.64 787.52C1774.64 784.72 1775.71 782.293 1777.86 780.24C1780.01 778.093 1783.37 777.02 1787.94 777.02C1791.21 777.02 1794.05 777.673 1796.48 778.98C1799 780.193 1801.19 781.873 1803.06 784.02C1804.93 786.073 1806.47 788.313 1807.68 790.74L1821.12 783.18C1819.44 779.727 1817.11 776.413 1814.12 773.24C1811.23 770.067 1807.63 767.453 1803.34 765.4C1799.05 763.347 1794.01 762.32 1788.22 762.32C1782.34 762.32 1777.07 763.44 1772.4 765.68C1767.83 767.827 1764.19 770.907 1761.48 774.92C1758.77 778.84 1757.42 783.413 1757.42 788.64C1757.42 793.213 1758.31 797.133 1760.08 800.4C1761.85 803.573 1764.09 806.28 1766.8 808.52C1769.51 810.667 1772.35 812.487 1775.34 813.98C1778.33 815.38 1781.03 816.5 1783.46 817.34C1787.57 818.833 1791.16 820.373 1794.24 821.96C1797.41 823.453 1799.89 825.32 1801.66 827.56C1803.43 829.707 1804.32 832.6 1804.32 836.24C1804.32 840.067 1802.92 843.193 1800.12 845.62C1797.32 848.047 1793.68 849.26 1789.2 849.26C1785.47 849.26 1782.11 848.513 1779.12 847.02C1776.13 845.433 1773.38 843.24 1770.86 840.44C1768.43 837.547 1766.15 834.233 1764 830.5ZM1852.07 892.8V797.6H1836.81V892.8H1852.07ZM1905.41 829.8C1905.41 822.613 1903.97 816.5 1901.07 811.46C1898.18 806.42 1894.35 802.593 1889.59 799.98C1884.83 797.273 1879.65 795.92 1874.05 795.92C1868.55 795.92 1863.74 797.32 1859.63 800.12C1855.62 802.827 1852.49 806.7 1850.25 811.74C1848.11 816.78 1847.03 822.8 1847.03 829.8C1847.03 836.707 1848.11 842.727 1850.25 847.86C1852.49 852.9 1855.62 856.82 1859.63 859.62C1863.74 862.327 1868.55 863.68 1874.05 863.68C1879.65 863.68 1884.83 862.373 1889.59 859.76C1894.35 857.053 1898.18 853.18 1901.07 848.14C1903.97 843.007 1905.41 836.893 1905.41 829.8ZM1889.73 829.8C1889.73 834.093 1888.85 837.78 1887.07 840.86C1885.3 843.847 1882.92 846.133 1879.93 847.72C1877.04 849.213 1873.82 849.96 1870.27 849.96C1867.38 849.96 1864.53 849.213 1861.73 847.72C1858.93 846.133 1856.6 843.847 1854.73 840.86C1852.96 837.873 1852.07 834.187 1852.07 829.8C1852.07 825.413 1852.96 821.727 1854.73 818.74C1856.6 815.753 1858.93 813.513 1861.73 812.02C1864.53 810.433 1867.38 809.64 1870.27 809.64C1873.82 809.64 1877.04 810.433 1879.93 812.02C1882.92 813.513 1885.3 815.8 1887.07 818.88C1888.85 821.867 1889.73 825.507 1889.73 829.8ZM1925.86 836.8H1977.66L1974.44 822.8H1928.94L1925.86 836.8ZM1951.48 791.72L1967.02 828.12L1967.44 832.18L1980.74 862H1999.36L1951.48 758.54L1903.6 862H1922.22L1935.8 831.34L1936.08 827.7L1951.48 791.72Z" fill="white"/>
</g>
<defs>
<filter id="filter0_d_115_2" x="39" y="36" width="610" height="610" filterUnits="userSpaceOnUse" color-interpolation-filters="sRGB">
<feFlood flood-opacity="0" result="BackgroundImageFix"/>
<feColorMatrix in="SourceAlpha" type="matrix" values="0 0 0 0 0 0 0 0 0 0 0 0 0 0 0 0 0 0 127 0" result="hardAlpha"/>
<feOffset dx="10" dy="10"/>
<feComposite in2="hardAlpha" operator="out"/>
<feColorMatrix type="matrix" values="0 0 0 0 0 0 0 0 0 0.0352941 0 0 0 0 0.172549 0 0 0 0.1 0"/>
<feBlend mode="normal" in2="BackgroundImageFix" result="effect1_dropShadow_115_2"/>
<feBlend mode="normal" in="SourceGraphic" in2="effect1_dropShadow_115_2" result="shape"/>
</filter>
<filter id="filter1_d_115_2" x="737.62" y="27.2397" width="1301.62" height="629.02" filterUnits="userSpaceOnUse" color-interpolation-filters="sRGB">
<feFlood flood-opacity="0" result="BackgroundImageFix"/>
<feColorMatrix in="SourceAlpha" type="matrix" values="0 0 0 0 0 0 0 0 0 0 0 0 0 0 0 0 0 0 127 0" result="hardAlpha"/>
<feOffset dx="10" dy="10"/>
<feComposite in2="hardAlpha" operator="out"/>
<feColorMatrix type="matrix" values="0 0 0 0 0 0 0 0 0 0.0352941 0 0 0 0 0.172549 0 0 0 0.1 0"/>
<feBlend mode="normal" in2="BackgroundImageFix" result="effect1_dropShadow_115_2"/>
<feBlend mode="normal" in="SourceGraphic" in2="effect1_dropShadow_115_2" result="shape"/>
</filter>
<clipPath id="clip0_115_2">
<rect width="2068" height="925" fill="white"/>
</clipPath>
<clipPath id="clip1_115_2">
<rect x="39" y="36" width="600" height="600" rx="20" fill="white"/>
</clipPath>
</defs>
</svg>
